<ttFont>
          <CharString index="0">
            329 554 rmoveto
            -154 -105 -118 -161 -157 98 -123 155 151 103 120 158 157 -96 123 -152 1 hvcurveto
            -8 -466 rmoveto
            -79 1 -47 85 -62 callsubr
            -88 -103 -105 -55 -80 -77 vhcurveto
            return
          </CharString>
          <CharString index="1">
            -103 callsubr
            38 32 31 39 vhcurveto
            return
          </CharString>
          <CharString index="2">
            -29 callsubr
            204 -20 -34 callsubr
            hintmask 10111100
            -102 callsubr
            hintmask 01111100
            -96 callsubr
            return
          </CharString>
          <CharString index="3">
            hstem
            70 125 258 124 vstem
            -107 callsubr
            return
          </CharString>
          <CharString index="4">
            38 -32 -100 callsubr
            return
          </CharString>
          <CharString index="5">
            483 298 rmoveto
            45 -2 48 -9 45 vhcurveto
            91 -19 -75 28 -78 hhcurveto
            -85 -79 -33 -29 -28 hvcurveto
            44 -67 rlineto
            14 17 50 34 55 hhcurveto
            64 27 -9 -129 hvcurveto
            -83 hlineto
            -103 -110 -54 -119 -124 79 -44 89 60 77 35 44 19 hvcurveto
            return
          </CharString>
          <CharString index="6">
            184 hmoveto
            52 149 rlineto
            271 hlineto
            52 -149 rlineto
            121 hlineto
            -250 719 rlineto
            -117 hlineto
            -251 -719 rlineto
            310 539 rmoveto
            107 -310 rlineto
            -215 hlineto
            return
          </CharString>
          <CharString index="7">
            32 -38 -98 callsubr
            return
          </CharString>
          <CharString index="8">
            hstem
            75 119 362 -61 callsubr
            675 363 rmoveto
            243 -130 18 callsubr
            -86 callsubr
            170 130 125 243 vhcurveto
            -303 -272 rmoveto
            -17 callsubr
            -82 callsubr
            return
          </CharString>
          <CharString index="9">
            -39 -31 -32 -38 -39 31 -31 39 return
          </CharString>
          <CharString index="10">
            -39 callsubr
            205 -20 -104 callsubr
            return
          </CharString>
          <CharString index="11">
            -40 11 44 -35 35 hhcurveto
            32 65 rlineto
            -30 11 -2 66 22 vvcurveto
            5 0 3 0 vhcurveto
            -117 -39 rmoveto
            -36 -22 -39 -22 -39 hhcurveto
            -56 -30 27 65 84 72 17 52 hvcurveto
            62 hlineto
            -33 0 -102 0 vhcurveto
            return
          </CharString>
          <CharString index="12">
            -98 callsubr
            hvcurveto
            0 -16 -62 -52 -51 vhcurveto
            16 30 0 0 hvcurveto
            96 81 -4 88 14 vvcurveto
            6 callsubr
            vhcurveto
            return
          </CharString>
          <CharString index="13">
            rmoveto
            -106 callsubr
            -290 hmoveto
            -106 callsubr
            endchar
          </CharString>
          <CharString index="14">
            -26 callsubr
            -66 -139 rlineto
            79 -71 callsubr
            return
          </CharString>
          <CharString index="15">
            -20 hstem
            80 119 322 -61 callsubr
            521 -38 callsubr
            -345 vlineto
            -220 -65 -64 -99 -95 -63 70 214 vhcurveto
            345 -119 -357 vlineto
            -243 110 -8 callsubr
            110 125 243 vhcurveto
            357 vlineto
            return
          </CharString>
          <CharString index="16">
            -93 callsubr
            endchar
          </CharString>
          <CharString index="17">
            rmoveto
            -91 callsubr
          </CharString>
          <CharString index="18">
            rmoveto
            -106 139 rlineto
            -89 hlineto
            -106 -139 rlineto
            108 hlineto
            42 77 43 -77 rlineto
            endchar
          </CharString>
          <CharString index="19">
            104 10 callsubr
            197 -20 -99 callsubr
            return
          </CharString>
          <CharString index="20">
            hstem
            70 115 vstem
            314 557 rmoveto
            -133 -111 -125 -156 -154 109 -126 144 89 53 28 53 43 hvcurveto
            -43 66 rlineto
            -38 -37 -63 -13 -29 hhcurveto
            -86 -65 60 83 hvcurveto
            382 hlineto
            167 23 -101 155 -175 hhcurveto
            -126 -236 rmoveto
            76 58 68 81 vhcurveto
            76 -2 55 -72 -70 vvcurveto
            return
          </CharString>
          <CharString index="21">
            -63 callsubr
            -243 130 -28 callsubr
            return
          </CharString>
          <CharString index="22">
            5 callsubr
            hstem
            77 -61 callsubr
            496 145 rmoveto
            -38 -33 -43 -16 -46 hhcurveto
            -93 -83 77 -40 callsubr
            41 -17 -37 32 -79 callsubr
            78 69 26 52 53 hvcurveto
            return
          </CharString>
          <CharString index="23">
            74 -5 96 629 -20 228 -92 callsubr
            return
          </CharString>
          <CharString index="24">
            -30 callsubr
            hvcurveto
            0 16 62 52 51 vhcurveto
            -16 -30 0 0 hvcurveto
            -96 -81 4 -88 -14 vvcurveto
            -38 32 -32 38 vhcurveto
            return
          </CharString>
          <CharString index="25">
            -56 callsubr
            93 83 -77 -195 2 hvcurveto
            -201 -2 -85 -71 -97 hhcurveto
            return
          </CharString>
          <CharString index="26">
            -52 callsubr
            450 89 -331 235 -33 callsubr
            return
          </CharString>
          <CharString index="27">
            -20 callsubr
            699 -20 hstem
            -101 callsubr
            return
          </CharString>
          <CharString index="28">
            hvcurveto
            81 72 rlineto
            52 -53 -69 26 -78 hhcurveto
            -86 callsubr
            return
          </CharString>
          <CharString index="29">
            80 532 rmoveto
            -291 vlineto
            -62 0 -72 46 -46 vhcurveto
            -40 40 35 -26 62 hhcurveto
            56 66 33 29 32 hvcurveto
            return
          </CharString>
          <CharString index="30">
            rmoveto
            79 hlineto
            -66 139 rlineto
            -26 callsubr
            endchar
          </CharString>
          <CharString index="31">
            rmoveto
            66 76 rlineto
            -75 hlineto
            -57 -97 40 -18 rlineto
            3 11 10 2 10 hhcurveto
            32 20 -19 -22 -25 -18 -12 -35 hvcurveto
            -56 vlineto
            67 44 35 60 37 -33 43 -48 -11 -11 -2 -5 -12 hvcurveto
            endchar
          </CharString>
          <CharString index="32">
            rmoveto
            25 12 18 25 21 -35 callsubr
            hintmask 11011100
            -13 callsubr
            hintmask 11101100
            -41 callsubr
          </CharString>
          <CharString index="33">
            rmoveto
            591 -119 -573 vlineto
            -1 0 -4 -7 vvcurveto
            -39 6 -118 89 -18 vhcurveto
            -3 15 20 -1 20 hhcurveto
            40 -22 callsubr
            -52 9 87 hvcurveto
            endchar
          </CharString>
          <CharString index="34">
            21 callsubr
            208 -20 -81 callsubr
            return
          </CharString>
          <CharString index="35">
            -32 -20 -74 -14 -27 hhcurveto
            -86 -11 76 90 hvcurveto
            300 -119 -20 16 callsubr
            0 vhcurveto
            return
          </CharString>
          <CharString index="36">
            hlineto
            106 139 rlineto
            return
          </CharString>
          <CharString index="37">
            rmoveto
            -106 callsubr
            -421 vmoveto
            -106 callsubr
            endchar
          </CharString>
          <CharString index="38">
            rmoveto
            -67 -55 -54 -67 -9 callsubr
            67 -54 54 -67 hvcurveto
            -184 vmoveto
            -35 -28 28 35 34 28 28 35 35 28 -28 -34 -35 -28 -28 -35 hvcurveto
            endchar
          </CharString>
          <CharString index="39">
            rmoveto
            -200 -246 -45 callsubr
            197 246 -200 245 rlineto
            -19 callsubr
            return
          </CharString>
          <CharString index="40">
            14 callsubr
            -200 -245 197 -246 -45 callsubr
            -200 246 rlineto
            return
          </CharString>
          <CharString index="41">
            rmoveto
            106 -139 rlineto
            89 -71 callsubr
            -108 hlineto
            -43 -77 -42 77 rlineto
            endchar
          </CharString>
          <CharString index="42">
            rmoveto
            -67 -58 -61 -82 -82 58 -62 67 67 57 62 82 82 -57 61 -67 hvcurveto
            -227 vmoveto
            -35 -28 31 53 52 28 31 35 35 28 -31 -52 -53 -28 -31 -35 hvcurveto
            return
          </CharString>
          <CharString index="43">
            -119 -193 hlineto
            0 0 -1 0 vhcurveto
            -218 vlineto
            0 0 -1 0 vhcurveto
            -7 vlineto
            return
          </CharString>
          <CharString index="44">
            -170 -130 -125 -243 return
          </CharString>
          <CharString index="45">
            30 callsubr
            53 81 78 78 49 return
          </CharString>
          <CharString index="46">
            119 vstem
            return
          </CharString>
          <CharString index="47">
            36 0 228 18 vvcurveto
            -34 7 73 -36 78 hhcurveto
            147 69 139 149 36 -4 35 -8 30 hvcurveto
            -243 -297 rmoveto
            -80 1 -47 87 104 vvcurveto
            return
          </CharString>
          <CharString index="48">
            491 -38 callsubr
            -496 vlineto
            -282 496 rlineto
            -46 callsubr
            496 hlineto
            282 -496 rlineto
            119 720 hlineto
            return
          </CharString>
          <CharString index="49">
            hstem
            76 -38 callsubr
            -95 363 vlineto
            -20 -16 -343 -514 rlineto
            -95 479 95 -363 vlineto
            20 15 343 515 rlineto
            95 vlineto
            return
          </CharString>
          <CharString index="50">
            hstem
            83 -61 callsubr
            202 551 rmoveto
            -119 -551 119 hlineto
            return
          </CharString>
          <CharString index="51">
            201 2 85 71 97 hhcurveto
            return
          </CharString>
          <CharString index="52">
            120 20 -86 -48 -118 -66 -33 -55 hvcurveto
            -107 285 hlineto
            endchar
          </CharString>
          <CharString index="53">
            -13 -56 rlineto
            hintmask 11101100
            36 -26 -58 25 -63 hhcurveto
            -103 -125 -70 -203 -149 70 -139 147 78 73 36 34 7 hvcurveto
            return
          </CharString>
          <CharString index="54">
            21 -21 720 -20 return
          </CharString>
          <CharString index="55">
            hstem
            93 -61 callsubr
            543 631 rmoveto
            89 -450 -720 return
          </CharString>
          <CharString index="56">
            540 20 rmoveto
            290 vlineto
            -1 62 0 72 -45 46 rrcurveto
            40 -40 -36 27 -59 hhcurveto
            -56 -69 -33 -29 -32 hvcurveto
            return
          </CharString>
          <CharString index="57">
            13 -57 rlineto
            106 551 -64 callsubr
            return
          </CharString>
          <CharString index="58">
            -52 -6 -27 callsubr
            -5 -51 47 -48 vhcurveto
            return
          </CharString>
          <CharString index="59">
            47 48 -5 51 -27 callsubr
            -52 6 -48 return
          </CharString>
          <CharString index="60">
            -53 callsubr
            hstem
            return
          </CharString>
          <CharString index="61">
            -119 -720 119 return
          </CharString>
          <CharString index="62">
            rlineto
            136 hlineto
            return
          </CharString>
          <CharString index="63">
            31 21 72 16 28 hhcurveto
            87 11 -78 -89 hvcurveto
            -300 119 20 vlineto
            0 0 0 0 vhcurveto
            endchar
          </CharString>
          <CharString index="64">
            -48 callsubr
            -48 vhcurveto
            -48 return
          </CharString>
          <CharString index="65">
            vhcurveto
            -48 48 -49 callsubr
            return
          </CharString>
          <CharString index="66">
            -33 -43 33 -49 hhcurveto
            -52 -40 -45 -45 -19 hvcurveto
            endchar
          </CharString>
          <CharString index="67">
            -4 callsubr
            -56 callsubr
            43 return
          </CharString>
          <CharString index="68">
            1 -5 93 376 90 return
          </CharString>
          <CharString index="69">
            720 rmoveto
            return
          </CharString>
          <CharString index="70">
            -5 callsubr
            -134 -323 rlineto
            -10 hlineto
            -124 323 rlineto
            -19 callsubr
            return
          </CharString>
          <CharString index="71">
            -209 304 12 -134 vvcurveto
            -71 -43 -39 -80 -52 -75 22 21 -38 vhcurveto
            -21 -84 return
          </CharString>
          <CharString index="72">
            42 37 -33 46 hhcurveto
            52 41 31 57 16 hvcurveto
            return
          </CharString>
          <CharString index="73">
            hstemhm
            69 111 185 118 return
          </CharString>
          <CharString index="74">
            301 80 -301 227 vlineto
            return
          </CharString>
          <CharString index="75">
            -27 callsubr
            52 -6 48 48 vhcurveto
            return
          </CharString>
          <CharString index="76">
            48 -48 52 6 -27 callsubr
            6 return
          </CharString>
          <CharString index="77">
            39 31 32 38 39 -31 31 -39 return
          </CharString>
          <CharString index="78">
            -60 16 -21 25 -21 475 81 return
          </CharString>
          <CharString index="79">
            -125 170 return
          </CharString>
          <CharString index="80">
            0 vvcurveto
            0 return
          </CharString>
          <CharString index="81">
            -119 hlineto
            return
          </CharString>
          <CharString index="82">
            hstem
            208 759 rmoveto
            -93 callsubr
            return
          </CharString>
          <CharString index="83">
            44 46 49 52 5 vhcurveto
            94 9 19 -26 15 -7 2 3 27 50 17 35 return
          </CharString>
          <CharString index="84">
            565 384 rmoveto
            126 -34 -21 callsubr
            return
          </CharString>
          <CharString index="85">
            41 5 0 hvcurveto
            0 0 61 11 vvcurveto
            -60 return
          </CharString>
          <CharString index="86">
            -95 46 -86 hhcurveto
            -63 -58 -25 -36 -26 hvcurveto
            return
          </CharString>
          <CharString index="87">
            96 21 -21 149 80 return
          </CharString>
          <CharString index="88">
            -134 hlineto
            return
          </CharString>
          <CharString index="89">
            rmoveto
            87 hlineto
            151 103 90 147 140 -128 83 -123 hvcurveto
            return
          </CharString>
          <CharString index="90">
            -93 -83 77 -4 callsubr
            return
          </CharString>
          <CharString index="91">
            -79 -47 83 103 105 53 77 78 68 36 -26 -26 22 hvcurveto
            53 64 return
          </CharString>
          <CharString index="92">
            224 49 -129 -119 -193 -66 -104 -159 hvcurveto
            endchar
          </CharString>
          <CharString index="93">
            236 99 hstem
            84 335 rmoveto
            -99 return
          </CharString>
          <CharString index="94">
            -63 19 rlineto
            -33 -11 -12 -8 -23 hhcurveto
            return
          </CharString>
          <CharString index="95">
            1 0 0 1 vvcurveto
            217 16 callsubr
            1 vvcurveto
            6 vlineto
            return
          </CharString>
          <CharString index="96">
            105 54 81 78 79 47 -89 -102 -105 -54 -82 -77 vhcurveto
            endchar
          </CharString>
          <CharString index="97">
            -27 -5 90 -64 -2 callsubr
            return
          </CharString>
          <CharString index="98">
            -67 55 -55 67 67 54 55 67 return
          </CharString>
          <CharString index="99">
            -28 callsubr
            170 return
          </CharString>
          <CharString index="100">
            -39 -21 799 -20 hstem
            return
          </CharString>
          <CharString index="101">
            51 -21 491 -20 hstem
            return
          </CharString>
          <CharString index="102">
            720 14 callsubr
            return
          </CharString>
          <CharString index="103">
            195 -2 hvcurveto
            return
          </CharString>
          <CharString index="104">
            rlineto
            -133 hlineto
            return
          </CharString>
          <CharString index="105">
            -21 551 -20 return
          </CharString>
          <CharString index="106">
            vstem
            211 -38 callsubr
            -46 callsubr
            hlineto
            return
          </CharString>
          <CharString index="107">
            -326 -7 callsubr
            84 180 vstem
            return
          </CharString>
          <CharString index="108">
            -21 725 -20 hstem
            341 -61 callsubr
            720 return
          </CharString>
          <CharString index="109">
            -20 -5 93 -67 -21 465 91 203 -20 hstemhm
            return
          </CharString>
          <CharString index="110">
            -137 -621 -127 621 -3 callsubr
            return
          </CharString>
          <CharString index="111">
            117 228 113 vstem
            return
          </CharString>
          <CharString index="112">
            96 544 96 return
          </CharString>
          <CharString index="113">
            38 -32 32 -38 return
          </CharString>
          <CharString index="114">
            140 hstem
            return
          </CharString>
          <CharString index="115">
            -38 callsubr
            -99 hlineto
            16 -169 rlineto
            67 hlineto
            return
          </CharString>
          <CharString index="116">
            hstem
            71 117 164 102 vstem
            73 44 rmoveto
            return
          </CharString>
          <CharString index="117">
            -5 5 callsubr
            return
          </CharString>
          <CharString index="118">
            21 -2 callsubr
            return
          </CharString>
          <CharString index="119">
            89 hstem
            94 117 341 123 vstem
            return
          </CharString>
          <CharString index="120">
            59 -21 260 119 260 -20 hstem
            return
          </CharString>
          <CharString index="121">
            rmoveto
            -19 callsubr
            return
          </CharString>
          <CharString index="122">
            -319 319 return
          </CharString>
          <CharString index="123">
            vlineto
            1 0 0 return
          </CharString>
          <CharString index="124">
            140 150 return
          </CharString>
          <CharString index="125">
            125 -170 return
          </CharString>
          <CharString index="126">
            200 endchar
          </CharString>
          <CharString index="127">
            -196 -21 212 92 378 91 return
          </CharString>
          <CharString index="128">
            -32 0 89 235 80 227 89 return
          </CharString>
          <CharString index="129">
            rlineto
            -105 -551 118 193 hlineto
            return
          </CharString>
          <CharString index="130">
            31 25 -25 -31 -31 -25 -26 -31 hvcurveto
            return
          </CharString>
          <CharString index="131">
            3 -4 96 143 86 144 92 return
          </CharString>
          <CharString index="132">
            140 vstem
            return
          </CharString>
          <CharString index="133">
            170 -121 170 -243 return
          </CharString>
          <CharString index="134">
            232 -302 -51 156 vvcurveto
            return
          </CharString>
          <CharString index="135">
            hstem
            68 103 277 111 vstem
            return
          </CharString>
          <CharString index="136">
            rlineto
            153 hlineto
            return
          </CharString>
          <CharString index="137">
            104 vvcurveto
            105 return
          </CharString>
        <CharString name=".notdef">
          -378 endchar
        </CharString>
        <CharString name=".null">
          endchar
        </CharString>
        <CharString name="A">
          -20 callsubr
          490 -20 hstem
          -101 callsubr
          endchar
        </CharString>
        <CharString name="Aacute">
          -80 callsubr
          199 699 -90 callsubr
        </CharString>
        <CharString name="Acircumflex">
          96 197 169 65 195 endchar
        </CharString>
        <CharString name="Adieresis">
          -20 callsubr
          564 7 callsubr
          166 17 callsubr
          25 callsubr
          -101 callsubr
          332 634 -94 callsubr
        </CharString>
        <CharString name="Agrave">
          -80 callsubr
          120 560 -77 callsubr
        </CharString>
        <CharString name="Aring">
          -20 callsubr
          803 -20 hstem
          249 243 vstem
          -101 callsubr
          107 803 -69 callsubr
        </CharString>
        <CharString name="Atilde">
          96 169 169 65 196 endchar
        </CharString>
        <CharString name="B">
          10 0 86 545 89 hstemhm
          94 117 217 110 -70 112 hintmask 11110000
          434 379 rmoveto
          49 11 55 54 80 vvcurveto
          140 -114 56 -123 vhcurveto
          -35 -131 0 -41 hhcurveto
          -720 270 vlineto
          hintmask 11101000
          24 192 10 198 108 -87 56 -59 7 hvcurveto
          -77 -293 rmoveto
          -146 247 hlineto
          130 5 0 3 hhcurveto
          77 42 -55 -70 -74 -42 -48 -69 hvcurveto
          -59 326 rmoveto
          -27 13 0 -68 hhcurveto
          -5 219 hlineto
          20 41 0 17 hhcurveto
          hintmask 11110000
          120 19 -59 -48 -118 -75 6 -55 hvcurveto
          endchar
        </CharString>
        <CharString name="C">
          10 -5 -85 callsubr
          endchar
        </CharString>
        <CharString name="CR">
          -378 endchar
        </CharString>
        <CharString name="Ccedilla">
          10 -216 -21 232 -85 callsubr
          -241 -142 -76 callsubr
        </CharString>
        <CharString name="D">
          106 0 86 545 12 callsubr
          675 380 rmoveto
          26 callsubr
          vhcurveto
          -35 -141 0 -41 hhcurveto
          -720 vlineto
          262 4 0 6 hhcurveto
          56 253 22 358 hvcurveto
          -464 -294 rmoveto
          545 vlineto
          34 5 0 29 hhcurveto
          -15 callsubr
        </CharString>
        <CharString name="E">
          21 callsubr
          -81 callsubr
          endchar
        </CharString>
        <CharString name="Eacute">
          -73 callsubr
          187 297 -90 callsubr
        </CharString>
        <CharString name="Ecircumflex">
          -73 callsubr
          245 158 -89 callsubr
        </CharString>
        <CharString name="Edieresis">
          -32 84 169 69 19 callsubr
        </CharString>
        <CharString name="Egrave">
          -32 191 169 69 193 endchar
        </CharString>
        <CharString name="Eth">
          106 0 86 225 99 221 12 callsubr
          7 410 rmoveto
          -99 87 -311 272 vlineto
          56 253 22 358 26 callsubr
          hvcurveto
          -217 -310 hlineto
          117 -324 rmoveto
          225 107 99 -107 221 68 vlineto
          -15 callsubr
        </CharString>
        <CharString name="Euro">
          17 -5 96 153 80 80 80 151 96 hstem
          433 635 rmoveto
          43 41 -17 -37 32 hvcurveto
          40 105 rlineto
          30 -46 -54 15 -59 hhcurveto
          -139 -112 -84 -163 -37 hvcurveto
          -59 hlineto
          -30 -80 rlineto
          78 hlineto
          -1 -13 0 -14 -14 vvcurveto
          -13 0 -13 1 -13 vhcurveto
          -48 hlineto
          -30 -80 rlineto
          89 hlineto
          -165 36 112 -84 140 hhcurveto
          43 40 8 15 36 hvcurveto
          127 vlineto
          -38 -33 -43 -16 -46 hhcurveto
          -71 -65 45 108 -28 hvcurveto
          160 hlineto
          30 80 rlineto
          -202 hlineto
          -1 12 -1 13 14 vvcurveto
          14 1 14 1 13 vhcurveto
          232 hlineto
          30 80 rlineto
          -250 hlineto
          109 29 67 42 74 hhcurveto
          endchar
        </CharString>
        <CharString name="F">
          -68 21 -21 324 80 227 89 -52 callsubr
          119 324 -33 callsubr
          endchar
        </CharString>
        <CharString name="G">
          48 -5 86 210 80 264 96 hstemhm
          77 119 180 238 -116 116 hintmask 11111000
          376 371 rmoveto
          -80 vlineto
          hintmask 11110100
          122 -178 hlineto
          -26 -22 -72 -6 -30 hhcurveto
          -93 -83 87 -40 callsubr
          42 -17 -37 31 -79 callsubr
          86 92 24 74 59 hvcurveto
          278 vlineto
          hintmask 11111000
          -238 hlineto
          endchar
        </CharString>
        <CharString name="H">
          86 21 -21 324 80 316 -20 hstem
          92 119 311 118 vstem
          522 -38 callsubr
          -316 -311 316 -46 callsubr
          324 311 -324 118 720 vlineto
          endchar
        </CharString>
        <CharString name="I">
          -345 -47 callsubr
          92 119 -1 callsubr
          endchar
        </CharString>
        <CharString name="Iacute">
          -345 -53 callsubr
          228 -20 hstem
          92 -61 callsubr
          211 hmoveto
          -119 720 119 hlineto
          32 208 -90 callsubr
        </CharString>
        <CharString name="Icircumflex">
          -345 -23 169 73 195 endchar
        </CharString>
        <CharString name="Idieresis">
          -345 -53 callsubr
          93 7 callsubr
          -54 140 6 119 25 140 -1 callsubr
          165 863 -94 callsubr
        </CharString>
        <CharString name="Igrave">
          -345 35 169 73 193 endchar
        </CharString>
        <CharString name="J">
          -94 -5 101 638 -20 hstem
          347 -61 callsubr
          347 734 rmoveto
          -550 vlineto
          -63 -2 -45 -25 -69 hhcurveto
          -54 -76 26 18 -26 hvcurveto
          -50 -79 rlineto
          -40 53 108 -26 56 hhcurveto
          116 108 42 137 hvcurveto
          560 vlineto
          endchar
        </CharString>
        <CharString name="K">
          7 -47 callsubr
          91 -61 callsubr
          559 -5 callsubr
          -215 -361 rlineto
          361 -46 callsubr
          342 vlineto
          232 -342 -45 callsubr
          -250 350 231 370 rlineto
          endchar
        </CharString>
        <CharString name="L">
          -75 0 89 631 -20 hstem
          91 -61 callsubr
          91 -38 callsubr
          -720 450 89 -331 631 vlineto
          endchar
        </CharString>
        <CharString name="Lslash">
          3 0 89 631 -20 hstem
          161 -61 callsubr
          40 269 rmoveto
          70 -70 332 233 -70 70 rlineto
          -211 218 rmoveto
          -720 450 89 -331 631 vlineto
          endchar
        </CharString>
        <CharString name="M">
          199 -47 callsubr
          90 119 427 -61 callsubr
          636 -38 callsubr
          -213 -492 -214 492 rlineto
          -46 callsubr
          495 hlineto
          162 -400 rlineto
          104 hlineto
          161 400 rlineto
          -495 119 720 -119 vlineto
          endchar
        </CharString>
        <CharString name="N">
          54 -47 callsubr
          90 119 282 -61 callsubr
          -59 callsubr
          endchar
        </CharString>
        <CharString name="Ntilde">
          54 -53 callsubr
          114 99 8 -20 hstemhm
          90 119 282 119 hintmask 11101100
          -59 callsubr
          -373 77 -75 callsubr
        </CharString>
        <CharString name="O">
          104 10 callsubr
          -99 callsubr
          endchar
        </CharString>
        <CharString name="Oacute">
          104 259 169 79 194 endchar
        </CharString>
        <CharString name="Ocircumflex">
          -88 callsubr
          153 698 -89 callsubr
        </CharString>
        <CharString name="Odieresis">
          104 152 169 79 19 callsubr
        </CharString>
        <CharString name="Ograve">
          -88 callsubr
          16 698 -77 callsubr
        </CharString>
        <CharString name="Otilde">
          104 173 169 79 196 endchar
        </CharString>
        <CharString name="P">
          -55 21 -21 260 86 285 89 hstem
          89 4 callsubr
          206 260 -18 callsubr
          -207 -720 117 hlineto
          88 631 rmoveto
          -55 callsubr
        </CharString>
        <CharString name="Q">
          86 -144 -21 183 -21 638 96 hstem
          62 119 362 -61 callsubr
          662 363 rmoveto
          243 -130 18 callsubr
          -63 callsubr
          -225 111 -123 151 -18 vhcurveto
          29 hlineto
          94 -162 rlineto
          129 hlineto
          -135 174 rlineto
          120 25 101 133 196 vvcurveto
          -481 hmoveto
          -82 callsubr
          -17 callsubr
          endchar
        </CharString>
        <CharString name="R">
          -1 21 -21 260 86 285 89 hstem
          88 4 callsubr
          576 hmoveto
          -164 283 rlineto
          82 36 52 75 103 vvcurveto
          140 -128 83 -123 vhcurveto
          -207 -720 117 260 hlineto
          97 5 0 1 9 hvcurveto
          136 -261 rlineto
          124 hlineto
          -371 631 rmoveto
          88 hlineto
          -55 callsubr
        </CharString>
        <CharString name="S">
          -116 -4 93 642 -20 hstem
          84 111 193 109 vstem
          497 197 rmoveto
          27 callsubr
          -24 callsubr
          rrcurveto
          25 -38 -68 10 -59 hhcurveto
          -116 -102 -74 -127 hvcurveto
          -36 callsubr
          rlineto
          -40 46 81 -12 60 hhcurveto
          144 87 96 105 hvcurveto
          endchar
        </CharString>
        <CharString name="Scaron">
          -116 92 169 83 207 endchar
        </CharString>
        <CharString name="T">
          2 21 -21 640 80 hstem
          265 118 vstem
          598 -38 callsubr
          -548 -80 215 -640 118 640 215 80 hlineto
          endchar
        </CharString>
        <CharString name="Thorn">
          187 21 -21 180 86 285 89 80 -20 hstem
          89 4 callsubr
          206 180 -18 callsubr
          -90 80 -117 -720 117 hlineto
          88 551 rmoveto
          -55 callsubr
        </CharString>
        <CharString name="U">
          74 -5 96 629 -92 callsubr
          endchar
        </CharString>
        <CharString name="Uacute">
          74 244 169 85 194 endchar
        </CharString>
        <CharString name="Ucircumflex">
          -84 callsubr
          -130 69 -89 callsubr
        </CharString>
        <CharString name="Udieresis">
          74 137 169 85 19 callsubr
        </CharString>
        <CharString name="Ugrave">
          -84 callsubr
          -267 69 -77 callsubr
        </CharString>
        <CharString name="V">
          80 17 -21 724 -20 hstem
          435 -4 rmoveto
          234 724 -3 callsubr
          -177 -621 -167 621 -3 callsubr
          223 -724 rlineto
          endchar
        </CharString>
        <CharString name="W">
          422 17 -21 724 -20 hstem
          865 -38 callsubr
          3 callsubr
          3 callsubr
          183 -724 29 callsubr
          126 543 118 -543 29 callsubr
          194 724 rlineto
          endchar
        </CharString>
        <CharString name="X">
          40 -47 callsubr
          614 -5 callsubr
          -137 -293 rlineto
          -10 hlineto
          -127 293 rlineto
          -19 callsubr
          195 -370 -183 -350 -45 callsubr
          123 271 rlineto
          10 hlineto
          114 -271 -45 callsubr
          -183 350 rlineto
          endchar
        </CharString>
        <CharString name="Y">
          -6 -47 callsubr
          256 -61 callsubr
          589 -37 callsubr
          203 -437 rlineto
          -283 119 293 vlineto
          214 427 rlineto
          endchar
        </CharString>
        <CharString name="Yacute">
          -6 204 169 89 194 endchar
        </CharString>
        <CharString name="Ydieresis">
          -6 97 169 89 19 callsubr
        </CharString>
        <CharString name="Z">
          -16 0 95 530 95 -58 callsubr
          endchar
        </CharString>
        <CharString name="Zcaron">
          -16 0 95 530 95 208 -20 -58 callsubr
          -391 208 -66 callsubr
        </CharString>
        <CharString name="_0000.001">
          endchar
        </CharString>
        <CharString name="_0000.002">
          endchar
        </CharString>
        <CharString name="_0000.004">
          endchar
        </CharString>
        <CharString name="_0000.005">
          endchar
        </CharString>
        <CharString name="_0000.006">
          endchar
        </CharString>
        <CharString name="_0000.007">
          endchar
        </CharString>
        <CharString name="_0000.008">
          endchar
        </CharString>
        <CharString name="_0000.009">
          endchar
        </CharString>
        <CharString name="_0000.010">
          endchar
        </CharString>
        <CharString name="_0001.003">
          endchar
        </CharString>
        <CharString name="_0001.005">
          endchar
        </CharString>
        <CharString name="_0001.006">
          -13 endchar
        </CharString>
        <CharString name="_0001.007">
          endchar
        </CharString>
        <CharString name="a">
          -29 callsubr
          -34 callsubr
          hintmask 10111000
          -102 callsubr
          hintmask 01111000
          -96 callsubr
          endchar
        </CharString>
        <CharString name="aacute">
          -105 callsubr
          19 627 -90 callsubr
        </CharString>
        <CharString name="acircumflex">
          -105 callsubr
          77 488 -89 callsubr
        </CharString>
        <CharString name="acute">
          -427 641 -21 139 -20 -25 callsubr
          endchar
        </CharString>
        <CharString name="adieresis">
          -60 70 0 97 19 callsubr
        </CharString>
        <CharString name="agrave">
          -105 callsubr
          -60 488 -77 callsubr
        </CharString>
        <CharString name="aid">
          419 0 108 275 108 60 -20 158 -20 hstem
          792 551 rmoveto
          -61 138 -395 -138 -61 hlineto
          -157 12 -62 -77 hvcurveto
          -273 vlineto
          -70 -12 -69 139 vhcurveto
          535 hlineto
          156 -11 62 77 hvcurveto
          273 vlineto
          119 -43 20 -102 vhcurveto
          -121 -365 rmoveto
          -78 -78 -119 78 -78 119 78 78 119 -78 78 hlineto
          186 vmoveto
          -275 138 275 hlineto
          endchar
        </CharString>
        <CharString name="ampersand">
          43 -7 85 -57 -21 632 95 hstemhm
          71 95 -47 95 171 91 hintmask 01101100
          638 hmoveto
          -132 164 23 40 22 41 14 41 rlinecurve
          -76 31 -14 -33 -14 -23 -14 -22 rlinecurve
          -34 41 -44 43 -25 35 60 31 68 65 4 101 rrcurveto
          118 -88 54 -91 -104 -74 -74 -91 -83 58 -60 32 -31 vhcurveto
          hintmask 10110100
          -67 -43 -71 -73 -103 vvcurveto
          -123 93 -53 82 92 69 36 55 41 vhcurveto
          hintmask 01101100
          68 -84 rlineto
          -219 632 rmoveto
          49 39 -27 -52 -47 -33 -52 -64 -27 hvcurveto
          -21 24 -53 44 67 vvcurveto
          41 42 29 41 vhcurveto
          hintmask 10110100
          -41 -554 rmoveto
          -68 -22 63 28 47 29 54 68 43 hvcurveto
          34 -46 55 -59 43 -53 rrcurveto
          -29 -25 -35 -48 -79 hhcurveto
          endchar
        </CharString>
        <CharString name="aring">
          -60 102 0 97 202 endchar
        </CharString>
        <CharString name="asterisk">
          -189 397 -21 348 -20 hstem
          383 470 rmoveto
          20 72 -126 21 98 81 -52 53 -81 -98 -21 125 -72 -20 44 -119 -119 45 -20 -72 126 -21 -98 -82 52 -52 81 98 21 -125 72 19 -44 120 119 -45 rlineto
          endchar
        </CharString>
        <CharString name="at">
          370 -96 -21 176 85 541 95 hstem
          72 95 137 97 201 87 177 95 vstem
          539 780 rmoveto
          -276 -191 -172 -314 -186 121 -159 81 -66 hvcurveto
          55 65 rlineto
          -45 31 -117 133 182 vvcurveto
          219 115 172 257 194 133 -145 -210 -128 -35 -58 -73 -27 -41 17 64 vhcurveto
          -1 284 rlineto
          -83 hlineto
          -10 -43 rlineto
          28 -20 -45 19 -49 hhcurveto
          -82 -96 -55 -158 -117 57 -107 111 61 58 28 27 5 hvcurveto
          9 hlineto
          -44 20 76 -28 44 hhcurveto
          133 83 107 164 234 -145 216 -277 hvcurveto
          -38 -632 rmoveto
          -59 -41 65 80 81 37 68 62 61 41 -66 -82 -80 -38 -66 -63 hvcurveto
          endchar
        </CharString>
        <CharString name="atilde">
          -60 91 0 97 196 endchar
        </CharString>
        <CharString name="b">
          2 callsubr
          84 118 251 124 hintmask 01111100
          565 384 rmoveto
          126 -35 -21 callsubr
          264 -118 -759 112 vlineto
          1 23 4 24 1 18 rrcurveto
          hintmask 10111100
          -34 8 73 -36 78 hhcurveto
          147 69 17 callsubr
          35 -4 34 -8 30 hvcurveto
          -244 -296 rmoveto
          -79 1 -47 86 -62 callsubr
          -89 -102 -105 -55 -81 -77 vhcurveto
          endchar
        </CharString>
        <CharString name="backslash">
          -201 0 -21 801 -20 hstem
          333 -21 rmoveto
          79 hlineto
          -300 801 rlineto
          -79 hlineto
          endchar
        </CharString>
        <CharString name="bar">
          -401 -215 -21 1026 -20 hstem
          163 790 rmoveto
          -79 -1026 79 hlineto
          endchar
        </CharString>
        <CharString name="bracketleft">
          0 callsubr
          264 660 rmoveto
          79 -180 -799 180 79 -101 641 101 vlineto
          endchar
        </CharString>
        <CharString name="bracketright">
          0 callsubr
          185 660 rmoveto
          -641 -101 -79 180 799 -180 -79 vlineto
          endchar
        </CharString>
        <CharString name="breve">
          -269 620 122 hstem
          189 679 rmoveto
          -35 -28 28 35 hvcurveto
          -59 hlineto
          -9 callsubr
          vhcurveto
          -58 hlineto
          -35 -28 -28 -35 vhcurveto
          endchar
        </CharString>
        <CharString name="c">
          -74 -5 97 368 94 hstem
          68 125 vstem
          448 141 rmoveto
          -28 -33 -38 -21 -58 hhcurveto
          -16 callsubr
          rlineto
          55 -44 -55 27 -81 hhcurveto
          -152 -103 -121 -158 -156 98 -124 154 81 47 27 55 44 hvcurveto
          endchar
        </CharString>
        <CharString name="caron">
          -301 620 139 hstem
          22 759 -66 callsubr
        </CharString>
        <CharString name="ccedilla">
          -74 171 0 99 203 endchar
        </CharString>
        <CharString name="cedilla">
          -358 -216 -21 244 -20 hstem
          113 -69 -76 callsubr
        </CharString>
        <CharString name="cent">
          -74 -59 -21 712 -20 hstem
          68 125 vstem
          319 92 rmoveto
          -16 callsubr
          -38 47 -46 27 -64 6 rlinecurve
          80 -79 -82 vlineto
          -126 -22 -82 -112 -141 vvcurveto
          -141 80 -114 128 -21 vhcurveto
          -79 79 77 vlineto
          60 7 40 26 37 47 -44 64 rcurveline
          -28 -33 -38 -21 -58 hhcurveto
          endchar
        </CharString>
        <CharString name="circumflex">
          -299 641 -21 139 -20 hstem
          324 620 -89 callsubr
        </CharString>
        <CharString name="colon">
          -358 -5 140 281 7 callsubr
          75 25 callsubr
          215 486 -70 callsubr
        </CharString>
        <CharString name="comma">
          -382 -96 -21 134 -21 140 -20 hstem
          133 136 rmoveto
          -95 callsubr
          endchar
        </CharString>
        <CharString name="currency">
          16 122 -21 529 -20 hstem
          132 91 216 92 vstem
          531 365 rmoveto
          46 -11 43 -20 35 vhcurveto
          86 71 -70 70 -67 -81 -31 23 -38 13 -45 1 rlinecurve
          -46 -42 -14 -25 -32 hvcurveto
          -69 83 -70 -70 87 -71 rlineto
          -20 -35 -11 -42 -46 vvcurveto
          -46 10 -43 20 -35 vhcurveto
          -86 -71 70 -70 68 82 rlineto
          -24 31 40 -13 46 hhcurveto
          45 40 14 23 32 hvcurveto
          68 -82 70 70 -86 72 rlineto
          20 34 11 42 46 vvcurveto
          -202 -156 rmoveto
          -66 1 -40 71 88 vvcurveto
          87 45 68 65 65 41 -73 -87 -88 -46 -67 -64 vhcurveto
          endchar
        </CharString>
        <CharString name="d">
          2 callsubr
          49 125 250 119 hintmask 10111100
          121 56 rmoveto
          -44 38 54 -17 52 hhcurveto
          78 74 36 34 7 hvcurveto
          hintmask 01111100
          2 -18 3 -24 2 -23 rrcurveto
          112 759 -119 -264 hlineto
          36 -26 -58 25 -63 hhcurveto
          -105 -123 -71 -202 -82 23 -89 49 -56 hvcurveto
          53 218 rmoveto
          104 48 87 79 79 52 -84 -105 vhcurveto
          hintmask 10111100
          -103 -49 -85 -80 -77 -51 83 103 -1 vhcurveto
          endchar
        </CharString>
        <CharString name="dieresis">
          -120 624 7 callsubr
          18 17 callsubr
          25 callsubr
          448 694 -94 callsubr
        </CharString>
        <CharString name="divide">
          -107 -5 140 101 99 81 7 callsubr
          196 25 callsubr
          43 335 rmoveto
          -99 456 99 vlineto
          -163 151 -70 callsubr
        </CharString>
        <CharString name="dollar">
          -116 -74 -21 905 -20 hstemhm
          84 111 -111 236 68 109 hintmask 11011000
          195 534 rmoveto
          -24 callsubr
          -32 21 -53 10 -51 3 rrcurveto
          80 -79 -84 vlineto
          -94 -18 -74 -70 -108 -36 callsubr
          40 -35 66 -13 56 -3 rlinecurve
          -92 79 96 vlineto
          111 20 66 85 91 vvcurveto
          hintmask 11101000
          27 callsubr
          endchar
        </CharString>
        <CharString name="dotaccent">
          -367 624 7 callsubr
          70 25 callsubr
          210 694 rmoveto
          -106 callsubr
          endchar
        </CharString>
        <CharString name="dotlessi">
          -361 11 callsubr
          -57 callsubr
          endchar
        </CharString>
        <CharString name="down">
          155 16 1 callsubr
          511 rmoveto
          -260 -260 rlineto
          469 -119 -469 vlineto
          -260 260 rlineto
          -197 vlineto
          320 15 callsubr
          319 rlineto
          endchar
        </CharString>
        <CharString name="downleft">
          163 0 138 452 -20 hstem
          128 139 vstem
          128 451 rmoveto
          -451 452 vlineto
          139 138 rlineto
          -368 hlineto
          332 332 -84 84 -332 -332 rlineto
          368 vlineto
          endchar
        </CharString>
        <CharString name="downright">
          162 0 138 452 -20 hstem
          542 139 vstem
          542 590 rmoveto
          -368 vlineto
          -332 332 -84 -84 332 -332 rlineto
          -368 hlineto
          139 -138 rlineto
          452 451 hlineto
          endchar
        </CharString>
        <CharString name="e">
          24 callsubr
          -87 callsubr
          endchar
        </CharString>
        <CharString name="eacute">
          24 callsubr
          202 -20 -87 callsubr
          -41 438 -90 callsubr
        </CharString>
        <CharString name="ecircumflex">
          3 151 0 101 195 endchar
        </CharString>
        <CharString name="edieresis">
          3 101 0 101 19 callsubr
        </CharString>
        <CharString name="egrave">
          3 209 0 101 193 endchar
        </CharString>
        <CharString name="eight">
          -53 -9 92 548 94 hstemhm
          70 105 -82 100 204 100 -78 105 hintmask 11011000
          303 725 rmoveto
          -115 -95 -66 -121 -68 43 -48 56 -40 hvcurveto
          hintmask 11100100
          -71 -33 -51 -66 -96 vvcurveto
          -122 84 -74 149 119 102 76 124 87 -61 57 -70 44 vhcurveto
          hintmask 11101000
          50 42 54 58 61 vvcurveto
          96 -52 89 -142 vhcurveto
          hintmask 11100100
          116 -547 rmoveto
          -47 -51 -48 -65 -73 -55 48 61 73 53 44 34 28 vhcurveto
          79 -48 78 -43 -68 vvcurveto
          hintmask 11011000
          -226 358 rmoveto
          63 47 32 64 51 42 -18 -75 -55 -35 -38 -33 -28 vhcurveto
          -72 40 -64 33 46 vvcurveto
          endchar
        </CharString>
        <CharString name="emdash">
          250 -14 callsubr
          728 99 vlineto
          endchar
        </CharString>
        <CharString name="endash">
          -22 -14 callsubr
          456 99 vlineto
          endchar
        </CharString>
        <CharString name="equal">
          -22 137 99 99 99 hstem
          84 434 rmoveto
          -99 456 99 vlineto
          -456 -198 rmoveto
          -99 456 99 vlineto
          endchar
        </CharString>
        <CharString name="eth">
          -16 -5 95 311 87 292 -20 28 callsubr
          466 655 rmoveto
          56 55 -70 70 -65 -64 -21 17 -73 26 -72 1 rlinecurve
          -61 vlineto
          34 -10 51 -24 13 -16 -46 -47 rcurveline
          70 -70 56 56 29 -39 14 -66 1 -59 rlinecurve
          -1 1 -5 0 -1 1 rrcurveto
          34 -17 -60 28 -68 hhcurveto
          -137 -86 -121 -109 -203 148 -60 93 171 79 122 168 182 -38 123 -55 65 hvcurveto
          -158 -565 rmoveto
          -78 -59 67 91 90 59 63 78 79 61 -63 -90 -91 -61 -67 -79 hvcurveto
          endchar
        </CharString>
        <CharString name="exclam">
          -360 -4 140 584 -20 hstem
          73 25 callsubr
          202 -38 callsubr
          -26 callsubr
          16 -521 rlineto
          87 hlineto
          16 521 rlineto
          11 -654 rmoveto
          -39 -32 -31 -38 -39 -31 31 39 38 31 32 39 38 32 -32 -38 vhcurveto
          endchar
        </CharString>
        <CharString name="exclamdown">
          -360 21 -21 584 7 callsubr
          73 25 callsubr
          202 hmoveto
          -26 callsubr
          16 521 rlineto
          87 hlineto
          16 -521 rlineto
          11 654 rmoveto
          39 -32 31 -38 -39 -31 -31 -39 -38 31 -32 39 38 32 32 38 vhcurveto
          endchar
        </CharString>
        <CharString name="f">
          -186 21 -21 471 80 126 86 hstem
          126 -61 callsubr
          319 677 rmoveto
          10 31 -1 -11 19 hvcurveto
          38 70 rlineto
          15 -22 -54 13 -39 hhcurveto
          -134 -32 -100 -112 -8 hvcurveto
          -74 -80 72 hlineto
          -16 0 -15 -16 vvcurveto
          -424 119 424 vlineto
          15 0 16 16 vvcurveto
          87 80 -85 hlineto
          68 4 15 58 53 hhcurveto
          endchar
        </CharString>
        <CharString name="five">
          -55 -5 87 272 93 177 96 hstem
          412 104 vstem
          477 624 rmoveto
          96 -357 vlineto
          0 -43 -359 -1 -43 vhcurveto
          84 hlineto
          25 32 44 11 47 hhcurveto
          77 52 -47 -74 -102 -59 -49 -95 -62 -77 36 24 -38 hvcurveto
          -98 vlineto
          -14 28 73 -35 89 hhcurveto
          83 162 25 213 109 -81 105 -137 -27 -71 -5 -19 -19 hvcurveto
          4 0 4 27 193 vhcurveto
          endchar
        </CharString>
        <CharString name="food">
          -91 21 -21 hstem
          417 506 rmoveto
          -43 callsubr
          -47 6 -52 -32 callsubr
          -120 vmoveto
          -43 callsubr
          -48 6 -51 -32 callsubr
          -120 vmoveto
          -43 callsubr
          -48 6 -51 -32 callsubr
          360 vmoveto
          -48 callsubr
          -47 vhcurveto
          -48 -48 6 -52 -32 callsubr
          -279 -120 rmoveto
          -31 callsubr
          52 -48 47 -42 callsubr
          -120 vmoveto
          -31 callsubr
          51 -48 48 -42 callsubr
          -120 vmoveto
          -31 callsubr
          51 -48 48 -42 callsubr
          360 vmoveto
          -31 callsubr
          52 -48 48 vhcurveto
          -48 47 -49 callsubr
          159 -626 rmoveto
          690 -39 -690 vlineto
          endchar
        </CharString>
        <CharString name="four">
          -39 21 -21 168 93 459 -20 hstem
          349 -61 callsubr
          349 hmoveto
          119 168 75 93 -75 459 -26 callsubr
          -312 -459 rlineto
          -93 312 vlineto
          -207 93 rmoveto
          207 322 rlineto
          -322 vlineto
          endchar
        </CharString>
        <CharString name="fruit">
          14 16 -21 hstem
          339 511 rmoveto
          -143 -83 -104 -152 -128 87 -132 139 138 87 132 128 152 -83 104 -142 hvcurveto
          104 72 rmoveto
          48 48 -6 51 -27 callsubr
          -52 6 -48 -48 vhcurveto
          -47 -47 6 -52 -27 callsubr
          51 -6 48 48 vhcurveto
          0 vlineto
          -119 -42 rmoveto
          0 8 69 -64 63 vhcurveto
          -64 64 -69 -7 -27 callsubr
          -8 -69 64 -64 vhcurveto
          63 -64 70 8 0 vvcurveto
          endchar
        </CharString>
        <CharString name="g">
          21 -222 96 121 93 377 91 -5 -20 hstemhm
          67 125 250 118 hintmask 11011100
          196 -71 rmoveto
          -68 -68 rlineto
          -59 46 77 -24 73 hhcurveto
          125 100 62 160 11 hvcurveto
          1 551 rlineto
          -106 hlineto
          -54 callsubr
          -1 1 -1 -1 vvcurveto
          -1 -5 rlineto
          -1 0 0 -1 vvcurveto
          -26 vlineto
          -113 -48 -42 -81 -31 -60 11 44 -26 vhcurveto
          254 350 rmoveto
          -105 -48 -86 -80 -78 -52 84 105 102 50 86 78 78 51 -83 -103 1 vhcurveto
          endchar
        </CharString>
        <CharString name="germandbls">
          -6 -5 84 -58 -21 672 92 hstemhm
          79 119 235 109 -86 112 hintmask 01111000
          449 379 rmoveto
          45 10 39 76 9 70 rrcurveto
          152 -92 77 -131 -190 -50 -134 -243 vhcurveto
          -387 119 375 vlineto
          200 16 97 108 64 47 -38 -99 vhcurveto
          -98 -8 -40 -25 -42 hhcurveto
          -55 -79 69 hlineto
          hintmask 10110100
          57 42 -55 -70 -74 -23 -55 -51 -63 -25 15 10 -23 hvcurveto
          -27 -75 rlineto
          -14 25 21 -20 109 hhcurveto
          44 125 15 198 108 -60 56 -59 7 hvcurveto
          endchar
        </CharString>
        <CharString name="grave">
          -427 641 -21 139 -20 hstem
          129 620 -77 callsubr
        </CharString>
        <CharString name="greater">
          -14 15 -21 571 -20 hstem
          84 -6 rmoveto
          520 254 rlineto
          66 vlineto
          -520 251 rlineto
          -87 vlineto
          428 -197 -428 -199 rlineto
          endchar
        </CharString>
        <CharString name="guillemotleft">
          73 -6 callsubr
          393 521 -67 callsubr
          451 245 -67 callsubr
          endchar
        </CharString>
        <CharString name="guillemotright">
          73 -6 callsubr
          527 276 -68 callsubr
          -49 -245 -68 callsubr
          endchar
        </CharString>
        <CharString name="guilsinglleft">
          -199 -6 callsubr
          377 521 -67 callsubr
          endchar
        </CharString>
        <CharString name="guilsinglright">
          -199 -6 callsubr
          271 276 -68 callsubr
          endchar
        </CharString>
        <CharString name="h">
          -51 21 -21 467 90 202 -20 hstem
          84 118 219 -61 callsubr
          -51 callsubr
          264 -118 -759 118 193 vlineto
          -12 callsubr
          -44 callsubr
        </CharString>
        <CharString name="hungarumlaut">
          -208 620 139 -25 callsubr
          219 hmoveto
          -91 callsubr
        </CharString>
        <CharString name="hyphen">
          -168 -14 callsubr
          311 99 vlineto
          endchar
        </CharString>
        <CharString name="i">
          -361 11 callsubr
          126 140 -57 callsubr
          11 727 rmoveto
          -106 callsubr
          endchar
        </CharString>
        <CharString name="iacute">
          -361 11 callsubr
          228 -20 -57 callsubr
          33 759 -90 callsubr
        </CharString>
        <CharString name="icircumflex">
          -361 -31 0 245 195 endchar
        </CharString>
        <CharString name="idieresis">
          -361 -80 0 245 19 callsubr
        </CharString>
        <CharString name="igrave">
          -361 27 0 245 193 endchar
        </CharString>
        <CharString name="j">
          -326 -221 85 687 -20 126 7 callsubr
          117 -61 callsubr
          59 -221 rmoveto
          186 -9 190 148 hvcurveto
          434 -119 -433 vlineto
          -96 -3 15 -158 -86 hhcurveto
          -11 -30 2 11 -19 hvcurveto
          -38 -71 rlineto
          -14 22 54 -13 38 hhcurveto
          187 948 rmoveto
          38 -31 -100 callsubr
          38 31 31 39 vhcurveto
          endchar
        </CharString>
        <CharString name="k">
          -71 11 callsubr
          228 -20 hstem
          84 -61 callsubr
          538 hmoveto
          -219 276 194 275 -3 callsubr
          -177 -263 rlineto
          471 -119 -759 119 264 vlineto
          200 -264 rlineto
          endchar
        </CharString>
        <CharString name="l">
          -291 16 -21 764 -20 hstem
          82 -61 callsubr
          201 168 -74 callsubr
        </CharString>
        <CharString name="left">
          231 13 callsubr
          402 677 rmoveto
          -319 15 callsubr
          -320 rlineto
          197 hlineto
          -260 260 rlineto
          469 119 -469 hlineto
          260 260 rlineto
          endchar
        </CharString>
        <CharString name="less">
          -16 15 -21 571 -20 hstem
          548 82 rmoveto
          -428 199 428 197 rlineto
          87 vlineto
          -520 -251 rlineto
          -66 vlineto
          520 -254 rlineto
          88 vlineto
          endchar
        </CharString>
        <CharString name="lslash">
          -162 16 -21 764 -20 hstem
          123 -61 callsubr
          43 329 rmoveto
          70 -70 322 223 -70 70 rlineto
          -123 -384 -74 callsubr
        </CharString>
        <CharString name="m">
          250 21 -21 466 91 -6 -20 24 -20 hstemhm
          84 119 186 118 187 118 hintmask 11001110
          812 310 rmoveto
          21 0 22 22 vvcurveto
          105 -72 77 -89 -51 -67 -33 -50 -46 vhcurveto
          hintmask 10011110
          53 -41 -37 28 -62 hhcurveto
          -55 -57 -32 -29 -32 hvcurveto
          hintmask 10101110
          -13 57 rlineto
          -106 -551 119 420 hlineto
          hintmask 11001110
          32 32 64 14 24 hhcurveto
          72 -6 -78 -88 hvcurveto
          -300 118 310 vlineto
          35 -1 23 51 vvcurveto
          43 51 59 4 12 hhcurveto
          71 -5 -78 -88 hvcurveto
          -300 118 19 vlineto
          endchar
        </CharString>
        <CharString name="man">
          -191 21 -21 627 140 hstemhm
          92 194 -119 119 -119 195 hintmask 11001000
          362 517 rmoveto
          32 5 32 -64 vhcurveto
          -144 hlineto
          hintmask 11100000
          -58 -8 -18 -26 -1 hvcurveto
          -2 vlineto
          -4 0 -4 -5 vvcurveto
          -216 56 216 vlineto
          hintmask 11010000
          19 -522 119 522 19 -216 hlineto
          hintmask 11001000
          57 231 hlineto
          -166 vmoveto
          7 0 6 7 vvcurveto
          -135 236 rmoveto
          38 32 31 39 -103 callsubr
          hvcurveto
          endchar
        </CharString>
        <CharString name="multiply">
          -59 81 -21 431 -20 hstem
          511 491 14 callsubr
          -84 -138 rlineto
          -10 hlineto
          -73 138 rlineto
          -19 callsubr
          141 -215 -140 -216 -45 callsubr
          80 137 rlineto
          10 hlineto
          71 -137 -45 callsubr
          -140 216 rlineto
          endchar
        </CharString>
        <CharString name="n">
          -26 21 -21 467 90 -6 -20 hstemhm
          84 118 219 119 hintmask 11011000
          -51 callsubr
          hintmask 10111000
          -13 56 22 callsubr
          -12 callsubr
          hintmask 11011000
          -44 callsubr
        </CharString>
        <CharString name="nine">
          -16 -5 92 145 87 311 95 28 callsubr
          291 232 rmoveto
          68 60 28 34 17 hvcurveto
          1 1 5 0 1 1 rrcurveto
          -109 -1 -48 -100 -107 hhcurveto
          -58 -43 3 24 -36 hvcurveto
          -38 -81 rlineto
          -30 46 67 -8 73 hhcurveto
          123 138 95 345 168 -79 122 -171 -93 -148 -60 -203 -109 86 -121 137 hvcurveto
          17 398 rmoveto
          79 61 -67 -91 -90 -61 -63 -79 -78 -59 63 90 91 59 67 78 hvcurveto
          endchar
        </CharString>
        <CharString name="ntilde">
          -26 108 0 110 196 endchar
        </CharString>
        <CharString name="o">
          -39 callsubr
          -104 callsubr
          endchar
        </CharString>
        <CharString name="oacute">
          -97 callsubr
          95 671 -90 callsubr
        </CharString>
        <CharString name="ocircumflex">
          -97 callsubr
          153 532 -89 callsubr
        </CharString>
        <CharString name="odieresis">
          -39 callsubr
          70 140 hstemhm
          70 125 -77 17 callsubr
          140 -95 124 hintmask 11110010
          -107 callsubr
          hintmask 11101100
          227 606 -94 callsubr
        </CharString>
        <CharString name="ogonek">
          -363 -198 -21 257 -20 hstem
          222 16 rmoveto
          -3 2 -17 15 -14 5 rrcurveto
          0 -134 -64 -81 vvcurveto
          -60 46 -52 83 vhcurveto
          37 vlineto
          -29 -42 19 55 62 99 53 11 9 hvcurveto
          endchar
        </CharString>
        <CharString name="ograve">
          -97 callsubr
          16 532 -77 callsubr
        </CharString>
        <CharString name="one">
          -233 -47 callsubr
          211 -61 callsubr
          330 hmoveto
          720 -119 vlineto
          -183 -183 84 -84 99 99 rlineto
          -552 119 vlineto
          endchar
        </CharString>
        <CharString name="otilde">
          -39 callsubr
          91 99 8 -20 hstemhm
          70 125 258 124 hintmask 11101100
          -107 callsubr
          -110 540 -75 callsubr
        </CharString>
        <CharString name="p">
          -21 20 callsubr
          -5 -20 hstemhm
          84 111 258 124 hintmask 11101100
          -23 callsubr
          hintmask 11011100
          -13 56 rlineto
          -106 -768 119 hlineto
          -60 callsubr
          hintmask 11101100
          -11 callsubr
        </CharString>
        <CharString name="parenleft">
          -358 -7 callsubr
          57 80 vstem
          234 -60 rmoveto
          -23 32 -77 159 3 202 3 231 57 145 20 30 rrcurveto
          -62 hlineto
          -49 -64 -49 -186 -136 vvcurveto
          -145 54 -196 56 -72 vhcurveto
          endchar
        </CharString>
        <CharString name="parenright">
          -359 -7 callsubr
          150 80 vstem
          120 -60 rmoveto
          56 72 54 196 145 vvcurveto
          136 -49 186 -49 64 vhcurveto
          -62 hlineto
          20 -30 57 -145 3 -231 3 -202 -77 -159 -23 -32 rrcurveto
          endchar
        </CharString>
        <CharString name="percent">
          141 17 -21 24 -21 721 -20 24 -20 hstemhm
          59 249 160 249 hintmask 10011100
          184 724 -65 callsubr
          409 -214 -65 callsubr
          hintmask 01101100
          -438 -57 rmoveto
          -99 hlineto
          570 721 rlineto
          99 hlineto
          endchar
        </CharString>
        <CharString name="period">
          -443 -4 7 callsubr
          32 25 callsubr
          172 66 rmoveto
          -106 callsubr
          endchar
        </CharString>
        <CharString name="plus">
          -13 21 -21 226 99 226 -20 hstem
          267 99 vstem
          592 325 rmoveto
          -226 226 -99 -226 -226 -99 226 -226 99 226 226 hlineto
          endchar
        </CharString>
        <CharString name="q">
          -21 -204 -21 220 93 377 91 -5 -20 hstemhm
          49 125 250 119 hintmask 11011100
          543 -64 rmoveto
          615 -106 vlineto
          -54 callsubr
          -106 0 -20 -11 vvcurveto
          -80 46 -62 76 -11 vhcurveto
          0 28 58 5 7 vhcurveto
          -39 26 3 37 33 vvcurveto
          -237 152 rmoveto
          -79 -53 83 106 102 50 86 78 78 52 -84 -105 -103 -49 -84 -77 -1 hvcurveto
          endchar
        </CharString>
        <CharString name="question">
          -150 -4 140 595 -20 hstemhm
          121 140 -115 89 103 111 hintmask 11011000
          235 198 rmoveto
          0 vlineto
          154 214 -31 209 vvcurveto
          127 -102 74 -116 -59 -68 -10 -25 -38 vhcurveto
          17 -35 27 -50 2 -3 15 7 19 26 94 -9 rrcurveto
          52 -5 46 -49 -44 -156 -192 52 -232 vvcurveto
          68 17 0 4 hhcurveto
          hintmask 11101000
          26 -132 rmoveto
          -106 callsubr
          endchar
        </CharString>
        <CharString name="questiondown">
          -150 17 -21 595 140 hstemhm
          66 111 77 140 -114 89 hintmask 11101000
          280 529 rmoveto
          0 vlineto
          -154 -214 31 -209 vvcurveto
          -127 102 -74 116 59 68 10 25 38 vhcurveto
          -17 35 -27 50 -2 3 -15 -7 -19 -26 -94 9 rrcurveto
          -52 5 -46 49 44 156 192 -52 232 vvcurveto
          -68 -17 0 -4 hhcurveto
          hintmask 11110000
          -26 132 rmoveto
          -38 32 -32 38 -30 callsubr
          -38 -32 -31 -39 vhcurveto
          endchar
        </CharString>
        <CharString name="quotedbl">
          -207 551 169 hstem
          179 8 callsubr
          196 169 rmoveto
          -99 hlineto
          16 -169 rlineto
          67 hlineto
          endchar
        </CharString>
        <CharString name="quotedblleft">
          -163 472 140 113 -20 hstem
          336 472 rmoveto
          -83 callsubr
          -190 hmoveto
          -83 callsubr
          endchar
        </CharString>
        <CharString name="quotedblright">
          -164 493 -21 113 7 callsubr
          147 725 rmoveto
          -95 callsubr
          190 hmoveto
          -95 callsubr
          endchar
        </CharString>
        <CharString name="quoteleft">
          -376 493 -21 253 -20 hstem
          131 472 rmoveto
          -83 callsubr
          endchar
        </CharString>
        <CharString name="quoteright">
          -377 493 -21 253 -20 hstem
          139 725 rmoveto
          -95 callsubr
          endchar
        </CharString>
        <CharString name="quotesingle">
          -401 572 -21 169 -20 hstem
          172 8 callsubr
          endchar
        </CharString>
        <CharString name="r">
          -210 21 -21 440 115 -4 -20 hstemhm
          84 118 hintmask 11010000
          394 555 rmoveto
          -114 -38 -21 -40 -40 hvcurveto
          hintmask 10110000
          -13 57 22 callsubr
          0 0 0 2 vvcurveto
          209 vlineto
          hintmask 11010000
          26 28 51 10 46 hhcurveto
          26 24 -3 -5 17 hvcurveto
          endchar
        </CharString>
        <CharString name="right">
          230 13 callsubr
          277 677 rmoveto
          260 -260 rlineto
          -469 -119 469 hlineto
          -260 -260 rlineto
          197 hlineto
          319 320 15 callsubr
          rlineto
          endchar
        </CharString>
        <CharString name="ring">
          -265 641 -21 243 -20 hstem
          69 243 vstem
          191 863 -69 callsubr
        </CharString>
        <CharString name="s">
          -122 -5 91 378 97 9 callsubr
          -44 63 46 -5 66 hhcurveto
          111 95 53 112 hvcurveto
          174 -266 -39 102 vvcurveto
          47 31 20 48 44 48 -7 -22 38 vhcurveto
          39 81 rlineto
          32 -52 -52 13 -65 hhcurveto
          -98 -98 -58 -109 -66 35 -36 69 -36 hvcurveto
          70 -36 107 -7 -62 vvcurveto
          -43 -44 -22 -71 -54 -34 19 18 -26 vhcurveto
          -50 -79 rlineto
          endchar
        </CharString>
        <CharString name="scaron">
          -122 -5 91 378 97 59 139 9 callsubr
          50 79 rlineto
          -18 26 34 -19 54 hhcurveto
          71 44 22 43 62 -107 7 -70 36 hvcurveto
          -69 36 -35 36 66 vvcurveto
          109 98 58 98 65 52 -13 -32 52 vhcurveto
          -39 -81 rlineto
          22 -38 -48 7 -44 hhcurveto
          -48 -31 -20 -47 hvcurveto
          -102 266 39 -174 vvcurveto
          -112 -95 -53 -111 -66 -46 5 44 -63 vhcurveto
          38 715 -66 callsubr
        </CharString>
        <CharString name="semicolon">
          -378 -96 -21 134 -21 420 7 callsubr
          64 25 callsubr
          134 136 rmoveto
          -95 callsubr
          70 350 rmoveto
          -106 callsubr
          endchar
        </CharString>
        <CharString name="seven">
          -90 21 -21 624 96 hstem
          234 hmoveto
          280 720 rlineto
          -452 -96 313 hlineto
          -250 -624 rlineto
          endchar
        </CharString>
        <CharString name="shelter">
          193 21 -21 713 -20 hstemhm
          100 149 -89 89 111 119 111 89 -89 149 hintmask 11101100
          360 hmoveto
          119 216 -119 -216 hlineto
          60 713 rmoveto
          -320 -319 rlineto
          -147 vlineto
          hintmask 11011100
          60 60 rlineto
          -307 89 396 vlineto
          171 171 170 -171 rlineto
          -396 89 307 vlineto
          hintmask 11101010
          60 -60 rlineto
          147 vlineto
          15 callsubr
          rlineto
          endchar
        </CharString>
        <CharString name="six">
          -15 -6 95 311 87 147 91 hstem
          71 111 277 103 vstem
          339 487 rmoveto
          -68 -60 -28 -34 -17 hvcurveto
          -1 -1 -5 0 -1 -1 rrcurveto
          109 1 48 102 107 hhcurveto
          58 43 -3 -24 36 hvcurveto
          38 81 rlineto
          30 -46 -67 7 -73 hhcurveto
          -123 -138 -96 -345 -168 79 -122 171 93 148 60 203 109 -86 121 -137 hvcurveto
          -17 -398 rmoveto
          -79 -61 67 91 90 61 63 79 78 59 -63 -90 -91 -59 -67 -78 hvcurveto
          endchar
        </CharString>
        <CharString name="slash">
          -202 0 -21 801 -20 hstem
          412 780 rmoveto
          -79 hlineto
          -300 -801 rlineto
          79 hlineto
          endchar
        </CharString>
        <CharString name="space">
          -378 endchar
        </CharString>
        <CharString name="sterling">
          -132 0 80 311 80 0 168 hstemhm
          132 119 hintmask 11010000
          60 hmoveto
          367 80 -176 311 107 80 -105 hlineto
          hintmask 10110000
          68 1 -12 100 83 hhcurveto
          37 43 -5 -11 19 hvcurveto
          39 74 -22 15 -54 20 -79 -7 rlinecurve
          -167 -14 -7 -151 -89 vvcurveto
          -74 hlineto
          hintmask 11010000
          -80 72 -311 -72 vlineto
          endchar
        </CharString>
        <CharString name="t">
          -237 16 -21 476 80 156 -20 hstem
          123 118 vstem
          241 167 rmoveto
          304 88 80 -88 156 -118 -156 -72 -80 72 vlineto
          -287 0 -4 -6 vvcurveto
          -39 6 -119 88 -17 vhcurveto
          -3 15 20 -1 20 hhcurveto
          41 -22 callsubr
          -53 8 87 hvcurveto
          endchar
        </CharString>
        <CharString name="thorn">
          -35 20 callsubr
          203 -20 hstem
          84 119 250 124 vstem
          -23 callsubr
          264 -119 -976 119 vlineto
          -60 callsubr
          -11 callsubr
        </CharString>
        <CharString name="three">
          -81 -5 84 556 89 hstemhm
          362 110 -87 112 hintmask 11100000
          358 379 rmoveto
          49 11 65 54 80 vvcurveto
          140 -103 60 -123 -86 -42 -14 -9 -30 vhcurveto
          34 -88 rlineto
          7 19 34 15 59 hhcurveto
          120 8 -63 -48 -118 -75 6 -55 hvcurveto
          -66 hlineto
          1 -79 rlineto
          0 -1 0 0 vhcurveto
          0 9 0 91 vhcurveto
          hintmask 11010000
          77 42 -55 -70 -74 -45 -55 -89 -123 -6 22 12 -23 hvcurveto
          -27 -84 rlineto
          -14 25 62 -20 109 hhcurveto
          44 185 15 198 108 -80 56 -59 7 hvcurveto
          endchar
        </CharString>
        <CharString name="tilde">
          -249 645 99 -95 -21 124 -20 hstemhm
          hintmask 01100000
          89 628 rmoveto
          25 12 18 25 21 hhcurveto
          hintmask 10000000
          -35 callsubr
          hintmask 01100000
          -13 callsubr
          hintmask 10000000
          -41 callsubr
        </CharString>
        <CharString name="transport">
          215 19 -21 104 80 113 86 252 80 hstem
          724 574 rmoveto
          70 11 69 -138 vhcurveto
          -315 hlineto
          -156 11 -63 -76 hvcurveto
          -472 50 -53 vlineto
          -21 1 -30 41 vhcurveto
          25 hlineto
          47 -1 28 13 hvcurveto
          63 261 -53 vlineto
          -21 0 -30 41 vhcurveto
          26 hlineto
          46 0 28 13 hvcurveto
          63 50 156 vlineto
          14 0 15 14 vvcurveto
          -401 332 rmoveto
          230 hlineto
          97 0 -51 -47 hvcurveto
          -8 0 -49 -97 vvcurveto
          -439 hlineto
          1 97 0 47 8 vvcurveto
          51 0 49 111 vhcurveto
          -79 -451 rmoveto
          -31 -26 26 31 31 26 25 31 23 callsubr
          374 hmoveto
          -32 -25 26 31 31 25 25 32 23 callsubr
          endchar
        </CharString>
        <CharString name="two">
          -46 0 95 531 99 hstem
          407 114 vstem
          521 506 rmoveto
          97 -72 122 -169 -60 -95 -23 -43 -48 vhcurveto
          34 -72 rlineto
          27 45 26 12 100 hhcurveto
          53 72 -30 -91 -131 -249 -199 -73 -66 hvcurveto
          -109 447 95 -305 vlineto
          73 73 221 185 153 vvcurveto
          endchar
        </CharString>
        <CharString name="u">
          -10 callsubr
          hstemhm
          80 119 218 119 hintmask 10111000
          -78 callsubr
          hintmask 01111000
          -50 callsubr
          hintmask 10111000
          -72 callsubr
          endchar
        </CharString>
        <CharString name="uacute">
          -10 callsubr
          228 -20 hstemhm
          80 119 218 119 hintmask 10111100
          -78 callsubr
          hintmask 01111100
          -50 callsubr
          hintmask 10111100
          -72 callsubr
          322 227 -90 callsubr
        </CharString>
        <CharString name="ucircumflex">
          -27 136 0 117 195 endchar
        </CharString>
        <CharString name="udieresis">
          -10 callsubr
          93 140 hstemhm
          80 119 -95 17 callsubr
          142 -119 119 hintmask 10111001
          -78 callsubr
          hintmask 01111010
          13 -57 rlineto
          106 551 hlineto
          hintmask 10111001
          -64 callsubr
          -72 callsubr
          454 162 rmoveto
          6 callsubr
          vhcurveto
          hintmask 10110110
          -98 callsubr
          38 32 31 39 hvcurveto
          -290 hmoveto
          -106 callsubr
          endchar
        </CharString>
        <CharString name="ugrave">
          -27 194 0 117 193 endchar
        </CharString>
        <CharString name="up">
          155 21 1 callsubr
          406 rmoveto
          15 callsubr
          -320 -319 rlineto
          -197 vlineto
          260 260 rlineto
          -469 119 469 vlineto
          260 -260 rlineto
          endchar
        </CharString>
        <CharString name="upleft">
          162 21 -21 452 138 hstem
          128 139 vstem
          267 hmoveto
          368 vlineto
          332 -332 84 84 -332 332 rlineto
          368 hlineto
          -139 138 rlineto
          -452 -451 hlineto
          endchar
        </CharString>
        <CharString name="upright">
          161 21 -21 452 138 hstem
          541 139 vstem
          680 139 rmoveto
          451 -452 vlineto
          -139 -138 rlineto
          368 hlineto
          -332 -332 84 -84 332 332 rlineto
          -368 vlineto
          endchar
        </CharString>
        <CharString name="v">
          10 17 -21 555 -20 hstem
          404 -4 rmoveto
          194 555 -3 callsubr
          -137 -459 -137 459 -3 callsubr
          193 -555 rlineto
          endchar
        </CharString>
        <CharString name="w">
          265 17 -21 555 -20 hstem
          714 551 rmoveto
          -103 -459 -92 459 rlineto
          -128 hlineto
          -103 -459 -91 459 rlineto
          -127 hlineto
          142 -555 29 callsubr
          88 318 81 -318 29 callsubr
          155 555 rlineto
          endchar
        </CharString>
        <CharString name="water">
          54 -10 150 585 -20 hstem
          519 81 vstem
          351 725 rmoveto
          -130 -129 -121 -189 -152 vvcurveto
          -152 98 -113 153 152 97 113 152 152 -120 189 -129 129 vhcurveto
          120 -585 rmoveto
          -20 -26 20 32 33 17 10 11 26 hvcurveto
          9 17 13 36 30 vvcurveto
          18 -32 26 -56 -48 vvcurveto
          -26 -16 -42 -32 vhcurveto
          endchar
        </CharString>
        <CharString name="woman">
          -189 21 -21 627 140 hstemhm
          94 177 -111 140 -112 83 -83 176 hintmask 11001000
          230 627 rmoveto
          hintmask 11010000
          38 32 31 39 -103 callsubr
          hvcurveto
          hintmask 11000100
          134 -110 rmoveto
          5 0 5 5 vvcurveto
          26 -4 23 -54 vhcurveto
          -145 hlineto
          hintmask 11100000
          -69 2 -25 -34 hvcurveto
          -196 50 196 13 vlineto
          23 -98 rlineto
          -35 vlineto
          -55 -209 rlineto
          59 hlineto
          8 -180 rlineto
          75 hlineto
          8 180 rlineto
          59 hlineto
          -55 209 rlineto
          34 vlineto
          23 99 rlineto
          13 -196 hlineto
          hintmask 11000100
          49 211 hlineto
          endchar
        </CharString>
        <CharString name="x">
          19 11 callsubr
          hstem
          590 551 14 callsubr
          -124 -198 rlineto
          -10 hlineto
          -113 198 rlineto
          -19 callsubr
          181 -275 -180 -276 -45 callsubr
          120 197 rlineto
          10 hlineto
          111 -197 -45 callsubr
          -180 276 181 275 rlineto
          endchar
        </CharString>
        <CharString name="y">
          11 -246 86 711 -20 hstem
          496 551 rmoveto
          -142 -424 -162 424 rlineto
          -118 hlineto
          226 -551 -37 -88 rlineto
          -69 -29 -15 -3 -44 -10 -28 10 -10 hhcurveto
          -4 -12 -16 -65 0 vvcurveto
          -3 9 42 -16 25 hhcurveto
          151 -8 29 768 289 hvcurveto
          endchar
        </CharString>
        <CharString name="yacute">
          11 213 0 121 194 endchar
        </CharString>
        <CharString name="ydieresis">
          11 105 0 121 19 callsubr
        </CharString>
        <CharString name="yen">
          3 21 -21 197 80 60 80 303 -20 hstem
          260 -61 callsubr
          593 -37 callsubr
          141 -303 rlineto
          -98 -80 135 hlineto
          25 -54 rlineto
          -6 -160 -80 160 -197 119 197 170 80 -170 6 vlineto
          22 54 rlineto
          148 80 -108 hlineto
          152 303 rlineto
          endchar
        </CharString>
        <CharString name="z">
          -59 0 95 361 95 hstem
          84 551 rmoveto
          -95 303 vlineto
          -20 -16 -283 -345 rlineto
          -95 419 95 -303 vlineto
          20 15 283 346 rlineto
          95 -419 vlineto
          endchar
        </CharString>
        <CharString name="zcaron">
          -59 121 0 122 207 endchar
        </CharString>
        <CharString name="zero">
          50 10 callsubr
          hstem
          72 119 314 -61 callsubr
          348 731 rmoveto
          -170 -106 -125 -243 -243 106 -8 callsubr
          106 125 243 243 -106 18 callsubr
          hvcurveto
          3 -96 rmoveto
          27 24 -7 -14 21 hvcurveto
          -203 -434 -18 43 -10 60 -1 80 rlinecurve
          201 2 61 71 97 hhcurveto
          -6 -544 rmoveto
          -29 -26 7 17 -21 hvcurveto
          204 436 20 -43 11 -62 1 -83 rlinecurve
          -201 -2 -61 -71 -97 hhcurveto
          endchar
        </CharString>
</ttFont>
